<svg width="191.75999755859374px" height="125.63999023437499px" xmlns="http://www.w3.org/2000/svg"
  viewBox="154.12000122070313 12.180004882812504 191.75999755859374 125.63999023437499"
  style="background: rgba(0, 0, 0, 0) none repeat scroll 0% 0%;" preserveAspectRatio="xMidYMid">
  <defs>
    <filter id="editing-vr">
      <feFlood flood-color="rgba(100%,0%,0%,0)" flood-opacity="0.7" result="c1"></feFlood>
      <feFlood flood-color="rgba(0%,0%,100%,0)" flood-opacity="0.7" result="c3"></feFlood>
      <feComposite operator="in" in="c1" in2="SourceAlpha" result="text-c1"></feComposite>
      <feComposite operator="in" in="c3" in2="SourceAlpha" result="text-c3"></feComposite>
      <feOffset in="text-c1" dx="5" dy="-1" result="text1"></feOffset>
      <feOffset in="text-c3" dx="-5" dy="1" result="text3"></feOffset>
      <feBlend in="SourceGraphic" in2="text1" mode="multiply" result="text4"></feBlend>
      <feBlend in="text4" in2="text3" mode="multiply"></feBlend>
    </filter>
  </defs>
  <g filter="url(#editing-vr)">
    <g transform="translate(186.6750044822693, 104.08499908447266)">
      <path
        d="M20.74-33.34L20.74-33.34Q26.94-33.34 30.46-28.80L30.46-28.80L30.46-28.80Q33.98-24.26 33.98-16.32L33.98-16.32L33.98-15.62L33.98-15.62Q33.98-8.06 30.50-3.71L30.50-3.71L30.50-3.71Q27.01 0.64 20.74 0.64L20.74 0.64L20.74 0.64Q14.72 0.64 11.33-4.16L11.33-4.16L11.33 11.58L5.31 11.58L5.31-32.70L9.79-32.70L9.79-32.70Q10.24-30.66 10.62-28.22L10.62-28.22L10.62-28.22Q14.27-33.34 20.74-33.34L20.74-33.34ZM19.65-28.54L19.65-28.54Q15.30-28.54 13.28-25.54L13.28-25.54L13.28-25.54Q11.26-22.53 11.26-16.38L11.26-16.38L11.26-16.38Q11.26-10.11 13.34-7.14L13.34-7.14L13.34-7.14Q15.42-4.16 19.65-4.16L19.65-4.16L19.65-4.16Q23.87-4.16 25.92-7.17L25.92-7.17L25.92-7.17Q27.97-10.18 27.97-16.38L27.97-16.38L27.97-16.38Q27.97-22.66 25.89-25.60L25.89-25.60L25.89-25.60Q23.81-28.54 19.65-28.54L19.65-28.54ZM57.34-33.34L57.34-33.34Q61.89-33.34 64.45-30.43L64.45-30.43L64.45-30.43Q67.01-27.52 67.01-23.10L67.01-23.10L66.82-20.67L61.50-20.67L61.50-22.08L61.50-22.08Q61.50-24 60.54-25.47L60.54-25.47L60.54-25.47Q59.58-26.94 58.11-27.74L58.11-27.74L58.11-27.74Q56.64-28.54 55.17-28.54L55.17-28.54L55.17-28.54Q52.10-28.54 50.37-26.11L50.37-26.11L50.37-26.11Q48.64-23.68 48.64-19.52L48.64-19.52L48.64 0L42.62 0L42.62-32.70L46.91-32.70L47.81-27.84L47.81-27.84Q48.19-29.12 49.54-30.40L49.54-30.40L49.54-30.40Q50.88-31.68 52.90-32.51L52.90-32.51L52.90-32.51Q54.91-33.34 57.34-33.34L57.34-33.34ZM82.88-46.59L82.88-46.59Q86.53-46.59 88.90-45.38L88.90-45.38L88.90-40.96L88.90-40.96Q86.98-41.79 85.63-41.79L85.63-41.79L85.63-41.79Q83.07-41.79 82.18-40.86L82.18-40.86L82.18-40.86Q81.28-39.94 81.28-37.76L81.28-37.76L81.28-32.70L88.90-32.70L88.90-27.90L81.28-27.90L81.28 0L75.26 0L75.26-27.90L71.68-27.90L71.68-32.70L75.26-32.70L75.26-37.12L75.26-37.12Q75.26-46.59 82.88-46.59L82.88-46.59ZM108.10-33.34L108.10-33.34Q111.74-33.34 114.59-32.19L114.59-32.19L114.59-32.19Q117.44-31.04 119.01-28.99L119.01-28.99L119.01-28.99Q120.58-26.94 120.58-24.45L120.58-24.45L120.51-23.30L114.56-23.30L114.56-23.87L114.56-23.87Q114.56-28.54 107.33-28.54L107.33-28.54L107.33-28.54Q100.16-28.54 100.16-24.26L100.16-24.26L100.16-24.26Q100.16-22.27 102.21-21.34L102.21-21.34L102.21-21.34Q104.26-20.42 108.48-19.58L108.48-19.58L108.48-19.58Q112.51-18.75 115.10-17.86L115.10-17.86L115.10-17.86Q117.70-16.96 119.52-15.04L119.52-15.04L119.52-15.04Q121.34-13.12 121.34-9.86L121.34-9.86L121.34-9.86Q121.34-4.61 117.76-1.98L117.76-1.98L117.76-1.98Q114.18 0.64 107.46 0.64L107.46 0.64L106.50 0.64L106.50 0.64Q102.46 0.64 99.46-0.61L99.46-0.61L99.46-0.61Q96.45-1.86 94.82-4L94.82-4L94.82-4Q93.18-6.14 93.25-8.83L93.25-8.83L93.25-10.24L99.20-10.24L99.20-9.60L99.20-9.60Q99.20-4.16 108.35-4.16L108.35-4.16L108.35-4.16Q111.04-4.16 113.18-5.38L113.18-5.38L113.18-5.38Q115.33-6.59 115.33-8.70L115.33-8.70L115.33-8.70Q115.33-10.50 114.14-11.52L114.14-11.52L114.14-11.52Q112.96-12.54 111.23-13.06L111.23-13.06L111.23-13.06Q109.50-13.57 106.43-14.08L106.43-14.08L106.43-14.08Q102.46-14.85 100.03-15.65L100.03-15.65L100.03-15.65Q97.60-16.45 95.87-18.37L95.87-18.37L95.87-18.37Q94.14-20.29 94.14-23.62L94.14-23.62L94.14-23.62Q94.14-28.16 97.73-30.75L97.73-30.75L97.73-30.75Q101.31-33.34 107.52-33.34L107.52-33.34L108.10-33.34Z"
        fill="#444"></path>
    </g>
  </g>
  <style>text {
    font-size: 64px;
    font-family: Arial Black;
    dominant-baseline: central;
    text-anchor: middle;
    }</style>
</svg>
