<svg width="195.32000732421875px" height="125.63999023437499px" xmlns="http://www.w3.org/2000/svg"
  viewBox="152.33999633789062 12.180004882812504 195.32000732421875 125.63999023437499"
  style="background: rgba(0, 0, 0, 0) none repeat scroll 0% 0%;" preserveAspectRatio="xMidYMid">
  <defs>
    <filter id="editing-hole" x="-100%" y="-100%" width="300%" height="300%">
      <feFlood flood-color="#2c2f32" result="black"></feFlood>
      <feMorphology operator="dilate" radius="2" in="SourceGraphic" result="erode"></feMorphology>
      <feGaussianBlur in="erode" stdDeviation="4" result="blur"></feGaussianBlur>
      <feOffset in="blur" dx="2" dy="2" result="offset"></feOffset>
      <feComposite operator="atop" in="offset" in2="black" result="merge"></feComposite>
      <feComposite operator="in" in="merge" in2="SourceGraphic" result="inner-shadow"></feComposite>
    </filter>
  </defs>
  <g filter="url(#editing-hole)">
    <g transform="translate(185.07000303268433, 98.61499977111816)">
      <path
        d="M24.83-43.90L24.83-43.90Q28.54-43.90 31.55-42.24L31.55-42.24L31.55-42.24Q34.56-40.58 36.26-37.66L36.26-37.66L36.26-37.66Q37.95-34.75 37.95-31.10L37.95-31.10L37.95-31.10Q37.95-27.46 36.26-24.54L36.26-24.54L36.26-24.54Q34.56-21.63 31.55-19.97L31.55-19.97L31.55-19.97Q28.54-18.30 24.83-18.30L24.83-18.30L12.16-18.30L12.16 0L5.89 0L5.89-43.90L24.83-43.90ZM24.26-38.21L12.16-38.21L12.16-24L24.26-24L24.26-24Q27.26-24 29.47-26.08L29.47-26.08L29.47-26.08Q31.68-28.16 31.68-31.10L31.68-31.10L31.68-31.10Q31.68-34.11 29.47-36.16L29.47-36.16L29.47-36.16Q27.26-38.21 24.26-38.21L24.26-38.21ZM59.97-33.34L59.97-33.34Q64.51-33.34 67.07-30.43L67.07-30.43L67.07-30.43Q69.63-27.52 69.63-23.10L69.63-23.10L69.44-20.67L64.13-20.67L64.13-22.08L64.13-22.08Q64.13-24 63.17-25.47L63.17-25.47L63.17-25.47Q62.21-26.94 60.74-27.74L60.74-27.74L60.74-27.74Q59.26-28.54 57.79-28.54L57.79-28.54L57.79-28.54Q54.72-28.54 52.99-26.11L52.99-26.11L52.99-26.11Q51.26-23.68 51.26-19.52L51.26-19.52L51.26 0L45.25 0L45.25-32.70L49.54-32.70L50.43-27.84L50.43-27.84Q50.82-29.12 52.16-30.40L52.16-30.40L52.16-30.40Q53.50-31.68 55.52-32.51L55.52-32.51L55.52-32.51Q57.54-33.34 59.97-33.34L59.97-33.34ZM85.50-46.59L85.50-46.59Q89.15-46.59 91.52-45.38L91.52-45.38L91.52-40.96L91.52-40.96Q89.60-41.79 88.26-41.79L88.26-41.79L88.26-41.79Q85.70-41.79 84.80-40.86L84.80-40.86L84.80-40.86Q83.90-39.94 83.90-37.76L83.90-37.76L83.90-32.70L91.52-32.70L91.52-27.90L83.90-27.90L83.90 0L77.89 0L77.89-27.90L74.30-27.90L74.30-32.70L77.89-32.70L77.89-37.12L77.89-37.12Q77.89-46.59 85.50-46.59L85.50-46.59ZM110.72-33.34L110.72-33.34Q114.37-33.34 117.22-32.19L117.22-32.19L117.22-32.19Q120.06-31.04 121.63-28.99L121.63-28.99L121.63-28.99Q123.20-26.94 123.20-24.45L123.20-24.45L123.14-23.30L117.18-23.30L117.18-23.87L117.18-23.87Q117.18-28.54 109.95-28.54L109.95-28.54L109.95-28.54Q102.78-28.54 102.78-24.26L102.78-24.26L102.78-24.26Q102.78-22.27 104.83-21.34L104.83-21.34L104.83-21.34Q106.88-20.42 111.10-19.58L111.10-19.58L111.10-19.58Q115.14-18.75 117.73-17.86L117.73-17.86L117.73-17.86Q120.32-16.96 122.14-15.04L122.14-15.04L122.14-15.04Q123.97-13.12 123.97-9.86L123.97-9.86L123.97-9.86Q123.97-4.61 120.38-1.98L120.38-1.98L120.38-1.98Q116.80 0.64 110.08 0.64L110.08 0.64L109.12 0.64L109.12 0.64Q105.09 0.64 102.08-0.61L102.08-0.61L102.08-0.61Q99.07-1.86 97.44-4L97.44-4L97.44-4Q95.81-6.14 95.87-8.83L95.87-8.83L95.87-10.24L101.82-10.24L101.82-9.60L101.82-9.60Q101.82-4.16 110.98-4.16L110.98-4.16L110.98-4.16Q113.66-4.16 115.81-5.38L115.81-5.38L115.81-5.38Q117.95-6.59 117.95-8.70L117.95-8.70L117.95-8.70Q117.95-10.50 116.77-11.52L116.77-11.52L116.77-11.52Q115.58-12.54 113.86-13.06L113.86-13.06L113.86-13.06Q112.13-13.57 109.06-14.08L109.06-14.08L109.06-14.08Q105.09-14.85 102.66-15.65L102.66-15.65L102.66-15.65Q100.22-16.45 98.50-18.37L98.50-18.37L98.50-18.37Q96.77-20.29 96.77-23.62L96.77-23.62L96.77-23.62Q96.77-28.16 100.35-30.75L100.35-30.75L100.35-30.75Q103.94-33.34 110.14-33.34L110.14-33.34L110.72-33.34Z"
        fill="#454545"></path>
    </g>
  </g>
  <style>text {
    font-size: 64px;
    font-family: Arial Black;
    dominant-baseline: central;
    text-anchor: middle;
    }</style>
</svg>
